<?xml version="1.0" encoding="UTF-8"?>
<svg width="200px" height="200px" viewBox="0 0 200 200" version="1.1" xmlns="http://www.w3.org/2000/svg" xmlns:xlink="http://www.w3.org/1999/xlink">
    <!-- Generator: Sketch 54.1 (76490) - https://sketchapp.com -->
    <title>ohio-northern</title>
    <desc>Created with Sketch.</desc>
    <g id="ohio-northern" stroke="none" stroke-width="1" fill="none" fill-rule="evenodd">
        <g id="ohio-northern_BGL">
            <g id="ohio-northern" transform="translate(0.000000, 32.000000)">
                <g id="g10" transform="translate(99.999998, 67.943265) scale(-1, 1) rotate(-180.000000) translate(-99.999998, -67.943265) translate(0.000000, 0.330974)" fill-rule="nonzero">
                    <g id="g12">
                        <path d="M199.786283,87.500707 C197.132856,93.2174918 194.342785,95.0047258 194.342785,95.0047258 C193.409451,94.890305 192.500704,94.7735201 192.500704,94.7735201 C185.424109,101.651061 171.581556,109.748933 171.581556,109.748933 C171.950823,115.874229 170.153187,118.536167 170.153187,118.536167 C166.374937,120.601415 161.952715,120.990068 161.952715,120.990068 C161.952715,120.990068 162.036403,124.573992 160.382502,127.271392 C158.729547,129.969737 150.864772,133.108744 150.864772,133.108744 C147.881793,132.198578 144.511107,130.477065 144.511107,130.477065 C144.511107,130.477065 133.953188,134.675647 120.285576,134.83924 C98.6463332,135.098815 86.693142,128.085103 86.693142,128.085103 C80.0212746,131.406616 72.8515348,131.83924 72.8515348,131.83924 C72.8515348,131.83924 65.9002348,131.158389 62.7111095,123.564063 C61.2425517,120.065718 61.112528,114.719619 62.8468069,109.516309 C58.0718662,106.915837 53.0898332,103.57352 48.093143,99.2765933 C45.5045852,98.1900685 36.454278,94.1243475 26.1580135,86.3517709 C23.5532855,84.3862863 20.9829309,82.2822674 18.499905,80.0761209 L18.1283211,80.0761209 C13.0526238,80.0761209 8.65782484,78.85579 5.41683202,76.5484614 C1.92375882,74.0605182 0,70.4312039 0,66.3290764 L0,38.4075641 C0,30.8325761 7.4152244,24.8993374 16.8816544,24.8993374 L41.7263347,24.8993374 C44.9384859,24.8993374 47.6921974,25.542789 49.9754125,26.6336164 L49.9754125,12.4883685 L81.1380594,12.4883685 C81.1380594,12.4883685 81.1380594,22.8202358 81.1380594,29.0501175 C86.6860498,23.0624108 96.4827399,12.4883685 96.4827399,12.4883685 L114.730494,12.4922456 C115.564063,5.38860507 123.099761,0 132.569737,0 L153.360753,0 C164.171627,0 172.324818,6.29229299 172.324818,14.638723 C172.324818,14.638723 172.324818,30.0866186 172.324818,34.512576 C173.726237,34.512576 178.035929,34.512576 178.035929,34.512576 L178.035929,53.9654833 C183.552714,55.6184383 188.381083,57.996216 188.381083,57.996216 C188.381083,57.996216 189.321981,59.6373508 189.647277,62.2799039 C190.650113,62.9092183 193.822217,64.3895965 193.822217,64.3895965 C196.145149,69.5002347 196.363588,73.109218 196.363588,73.109218 C196.666189,73.1479887 196.947513,73.1872322 197.201886,73.2278942 C199.423163,76.2023622 200.285101,83.4973974 199.786283,87.500707" id="path14" fill="#231F20"></path>
                        <path d="M136.89645,108.360281 C135.57872,107.992905 134.438767,107.42742 134.438767,107.42742 C136.690304,105.75508 140.083212,105.466664 140.083212,105.466664 C137.422692,106.129075 136.89645,108.360281 136.89645,108.360281" id="path16" fill="#FFFFFF"></path>
                        <path d="M141.627892,106.011818 C138.981084,106.178721 138.957443,108.401889 138.957443,108.401889 C138.370209,108.535222 137.806616,108.524347 137.806616,108.524347 C138.28794,106.281794 140.372101,105.792905 141.627892,106.011818" id="path18" fill="#F36532"></path>
                        <path d="M144.431675,106.958863 C144.431675,106.958863 143.737112,105.859572 142.326238,105.49456 C142.326238,105.49456 144.752242,105.690777 145.856261,106.43735 C145.856261,106.43735 145.352242,106.699761 144.431675,106.958863" id="path20" fill="#FFFFFF"></path>
                        <path d="M122.375883,106.099288 L126.045387,110.072338 C128.50638,112.54326 132.976356,115.377775 132.976356,115.377775 C140.232148,115.437822 146.177774,112.650115 148.488885,111.389595 C149.121509,112.450115 148.160753,114.162172 148.160753,114.162172 C146.693141,115.556025 145.77872,116.154134 145.324819,116.401416 C145.507325,115.424583 145.365481,114.950825 145.365481,114.950825 C145.365481,114.950825 140.830257,119.201888 134.689358,120.286522 C134.689358,120.286522 137.962644,118.541841 138.955079,116.88794 C138.955079,116.88794 129.787231,122.807562 115.355553,119.130493 C115.355553,119.130493 119.010872,118.32482 120.668082,114.138059 C120.668082,114.138059 114.723874,118.126711 106.939004,117.271392 C106.939004,117.271392 107.690777,119.346569 110.613709,120.132385 C110.613709,120.132385 106.014655,123.455789 97.867137,121.612763 C100.033567,124.626002 102.782503,125.667609 102.782503,125.667609 C95.7139456,125.279429 89.8193831,120.020801 89.8193831,120.020801 C89.8193831,120.020801 100.215128,116.509217 111.320092,111.483685 C115.326238,109.719619 119.234512,107.861463 122.375883,106.099288" id="path22" fill="#D3D2D2"></path>
                        <path d="M153.97872,109.613236 C164.412762,103.548461 177.502596,92.7744658 181.487466,89.4430238 C182.22269,91.9683192 183.38061,93.2226927 184.626473,93.7555532 C173.905906,103.631676 153.260989,114.495978 153.260989,114.495978 C154.469972,112.628366 153.97872,109.613236 153.97872,109.613236" id="path24" fill="#D3D2D2"></path>
                        <path d="M69.2354593,113.662881 C69.0903056,113.845387 68.9560266,114.043969 68.833568,114.252479 C68.9725751,112.709217 69.3929061,111.417018 70.3304947,110.206144 C68.6713931,119.328602 76.1564993,119.677538 77.7536624,119.647278 L76.8250572,120.960753 C76.8250572,120.960753 67.5087454,122.274701 69.2354593,113.662881" id="path26" fill="#D3D2D2"></path>
                        <path d="M198.146094,86.1645369 C196.860515,88.9323855 194.504487,91.361227 194.504487,91.361227 C194.276591,91.3635911 194.045858,91.3427873 193.813707,91.3044894 C192.115834,91.0184374 190.42931,89.7654824 190.42931,89.7654824 C190.164061,90.1418417 189.865243,90.4411325 189.552241,90.6813216 C189.08652,91.0378228 188.591957,91.2609906 188.130019,91.396688 C187.115362,91.69787 186.264771,91.5858133 186.264771,91.5858133 C185.700232,90.8983429 185.460988,89.7919599 185.366898,89.164064 C185.3234,88.8756479 185.310634,88.6893595 185.310634,88.6893595 C185.707797,88.7139458 186.064298,88.6817945 186.386284,88.6099269 C187.71347,88.3125273 188.433092,87.298343 188.812288,86.4359316 C189.129073,85.7158371 189.209452,85.1016527 189.209452,85.1016527 C190.410397,86.2226929 191.45626,86.4496432 192.303068,86.278012 C192.832146,86.1716291 193.284629,85.9106362 193.648695,85.6151279 C194.324818,85.0666645 194.697867,84.402362 194.697867,84.402362 C195.268553,86.1985794 197.057205,86.2898324 198.146094,86.1645369" id="path28" fill="#7B7979"></path>
                        <path d="M192.112998,81.1825039 C190.921508,81.2699743 189.436875,81.3016528 188.634038,81.0170193 C188.634038,81.0170193 188.193376,80.0137096 186.655314,79.799998 C186.655314,79.799998 186.415598,80.1035441 186.054842,80.6103999 C185.277537,81.7049625 183.939475,83.7475156 183.233565,85.7390049 C182.918199,85.7314399 182.563589,85.7077993 182.218435,85.6529529 C181.804251,85.5877047 181.403305,85.4775392 181.104487,85.2893596 C181.543258,84.2085085 182.986284,80.8997616 184.935693,78.8572084 C185.122454,78.6619366 185.314416,78.476121 185.511106,78.306381 C186.681792,78.1484614 189.68983,77.8184378 192.69834,78.1768302 C192.69834,78.1768302 193.584865,78.8643006 193.728128,79.6775394 C193.728128,79.6775394 193.530019,80.4056717 193.156024,81.0865228 C192.862879,81.1182013 192.503541,81.1536623 192.112998,81.1825039" id="path30" fill="#7B7979"></path>
                        <path d="M156.049641,70.6297855 C156.06288,70.6278942 156.074701,70.6269486 156.086994,70.6264758 C156.20567,70.6151283 156.325764,70.6037807 156.444441,70.590542 C164.438767,69.7385325 171.454369,64.866665 171.454369,64.866665 C171.45957,64.8685563 171.464771,64.8695019 171.469499,64.871866 C180.082265,68.2193836 185.289357,68.2652465 188.300232,67.5456248 C189.478482,67.2647737 190.320563,66.8657194 190.897868,66.5030716 C191.099759,66.7791945 191.285574,67.0557903 191.454369,67.3309676 C191.500704,67.4051993 191.542312,67.4803766 191.586756,67.5546082 C191.62269,67.6165468 191.661461,67.6789581 191.696449,67.7408967 C192.695031,69.5125278 193.05295,71.1711566 193.179664,72.2600455 C188.897395,71.929549 184.560752,72.7399509 184.560752,72.7399509 C184.560752,72.7399509 184.382501,72.873757 184.086047,73.1281306 C182.79243,74.2340407 179.226946,77.6321494 178.15366,82.2652462 C178.019854,82.8406599 177.960752,83.3546078 177.957442,83.8198561 C174.157915,87.0737567 162.627419,96.1962151 147.555079,101.154607 C147.555079,101.154607 147.555079,101.153189 147.554133,101.149879 C147.554133,101.14326 147.552242,101.127184 147.550824,101.103544 C147.549405,101.093142 147.54846,101.081321 147.547514,101.068555 C147.546096,101.055317 147.544677,101.041132 147.542786,101.025057 C147.54184,101.020328 147.54184,101.016073 147.54184,101.010872 C147.438294,100.11631 146.557443,95.3479882 139.438767,95.4340402 C132.853425,95.5134728 132.032148,100.455317 132.032148,100.455317 C132.032148,100.455317 130.825529,91.1981065 143.884157,92.3858133 C143.884157,92.3858133 139.368318,79.5716292 119.690304,84.1394778 C119.690304,84.1394778 123.589122,78.5224567 134.003779,78.3957427 C144.4208,78.27092 153.651533,84.0193832 154.190067,93.48274 C154.190067,93.48274 167.855315,88.2108725 168.332856,82.2170192 C168.816544,76.1706837 166.026001,75.2023622 160.48132,73.1815585 C160.479901,73.1815585 160.478956,73.1810856 160.477065,73.1810856 C160.477065,73.1810856 157.487467,72.456263 156.049641,70.6297855" id="path32" fill="#D3D2D2"></path>
                        <path d="M196.13191,81.3711564 C195.941839,80.9475157 195.725291,80.349407 195.572099,79.5664283 C195.572099,79.5664283 195.862879,78.5229295 196.468553,77.9498798 C196.468553,77.9498798 197.085574,78.0061446 197.885574,77.934277 L197.880846,78.0122912 L197.913943,78.162173 L198.409924,80.222693 C198.467135,80.4983431 198.516307,80.7777758 198.561224,81.0576812 C198.477536,81.166901 198.38912,81.278485 198.28983,81.3900689 C198.28983,81.3900689 197.061934,81.5475157 196.13191,81.3711564" id="path34" fill="#7B7979"></path>
                        <path d="M81.936641,114.555553 C81.936641,114.555553 75.0108728,115.678011 75.0983433,112.446806 C75.1224568,111.468082 76.159809,110.712054 77.2638279,110.181558 C78.1673739,113.175884 81.1030713,112.788177 83.9914873,111.901179 L81.936641,114.555553" id="path36" fill="#D3D2D2"></path>
                        <path d="M23.0356023,80.0761209 L23.8041129,80.0761209 C51.5456252,97.1361678 70.527185,84.6108726 74.1848681,82.3801398 C71.278958,80.7943242 68.4557903,82.2160736 68.4557903,82.2160736 C64.5484617,79.7687923 65.4676107,71.2033079 65.4676107,71.2033079 C60.5371143,74.6997617 63.504963,83.4397142 63.504963,83.4397142 C50.9990531,86.8903052 39.0163111,84.1475156 29.6032617,80.0761209 L40.4813229,80.0761209 C47.6955071,80.0761209 53.7669017,76.9059082 56.5125281,72.2430242 C58.3569725,71.4756483 60.1843957,70.3517713 61.9096911,68.7560266 C61.9096911,68.7560266 60.5976344,69.5432607 57.7479891,69.2661921 C57.8803768,68.7442063 57.9758851,68.2104002 58.0302586,67.6671378 L74.524348,67.6671378 C73.0250573,69.2094545 71.4307311,70.5007075 69.8945609,71.5602819 C79.8269484,84.8420783 75.7683196,97.3129999 75.7683196,97.3129999 C74.8851045,97.2193829 73.8765939,97.1007068 72.9706838,96.9626453 C70.8165467,98.1825035 69.0047264,99.6912505 67.5025988,101.379194 C56.7839229,98.1645366 50.3002351,92.5300213 50.3002351,92.5300213 C54.7158379,97.2137092 61.0042538,101.347042 65.5054357,103.991014 C64.9281308,104.874229 64.4193837,105.786286 63.9768306,106.714418 C59.2600458,104.157444 54.3309679,100.839241 49.4061453,96.5262387 C49.4061453,96.5262387 36.4882733,91.5205651 23.0356023,80.0761209" id="path38" fill="#FFFFFF"></path>
                        <path d="M50.3002351,92.5300213 C50.3002351,92.5300213 56.7839229,98.1645366 67.5025988,101.379194 C66.7626461,102.211345 66.0983435,103.086049 65.5054357,103.991014 C61.0042538,101.347042 54.7158379,97.2137092 50.3002351,92.5300213" id="path40" fill="#D3D2D2"></path>
                        <path d="M61.9096911,68.7560266 C60.1843957,70.3517713 58.3569725,71.4756483 56.5125281,72.2430242 C57.0643012,71.3063812 57.4817953,70.3096909 57.7479891,69.2661921 C60.5976344,69.5432607 61.9096911,68.7560266 61.9096911,68.7560266" id="path42" fill="#D3D2D2"></path>
                        <path d="M21.3513943,64.6799038 L36.8825523,64.6799038 C37.497966,64.6799038 37.5962166,64.2813223 37.6051054,64.2349866 C37.6051054,64.2349866 37.600661,41.0553181 37.600661,40.6009919 C37.488557,40.4903536 37.1706846,40.2903536 36.6341835,40.2903536 L21.143451,40.2903536 C20.8063825,40.2903536 20.4877536,40.2903536 20.4877536,41.1990061 L20.4877536,64.4860504 C20.5071862,64.4666651 20.7332383,64.6799038 21.3513943,64.6799038 L21.3513943,64.6799038 Z M18.1283211,74.8075631 C10.4360754,74.8075631 5.26761216,71.400471 5.26761216,66.3290764 L5.26761216,38.4075641 C5.26761216,33.7867604 10.3695506,30.1660513 16.8816544,30.1660513 L41.7263347,30.1660513 C49.0085094,30.1660513 52.8179656,34.6996682 52.8179656,39.1792425 L52.8179656,66.5669014 C52.8179656,71.1867594 47.3985804,74.8075631 40.4813229,74.8075631 L18.1283211,74.8075631 L18.1283211,74.8075631 Z" id="path44" fill="#FFFFFF"></path>
                        <path d="M96.8278936,62.39858 C96.8278936,62.39858 96.8278936,46.7649161 96.8278936,39.5971621 C91.1413689,45.7007081 75.58014,62.39858 75.58014,62.39858 L55.2434974,62.39858 L55.2434974,52.2709207 C55.2434974,52.2709207 59.3361687,52.2709207 60.9645375,52.2709207 C60.9645375,48.6359326 60.9645375,31.5144673 60.9645375,27.8804721 C59.3361687,27.8804721 55.2434974,27.8804721 55.2434974,27.8804721 L55.2434974,17.7580137 L75.8699745,17.7580137 C75.8699745,17.7580137 75.8699745,35.0136634 75.8699745,42.4912992 C81.7044897,36.1910629 98.7825034,17.7559806 98.7825034,17.7559806 L117.567373,17.7608033 L117.567373,27.8804721 C117.567373,27.8804721 113.471392,27.8804721 111.839714,27.8804721 C111.839714,31.5144673 111.839714,48.6359326 111.839714,52.2709207 C113.471392,52.2709207 117.567373,52.2709207 117.567373,52.2709207 L117.567373,62.39858 L96.8278936,62.39858" id="path46" fill="#FFFFFF"></path>
                        <path d="M151.001415,49.9111099 C151.001415,49.9111099 151.001415,16.7026946 151.001415,15.8107797 C150.752715,15.6279429 150.250587,15.3910162 149.723401,15.3910162 L137.040186,15.3910162 C136.377774,15.3910162 136.040186,15.5380138 135.868555,15.6377301 C135.868555,16.419905 135.868555,49.9111099 135.868555,49.9111099 L114.199997,49.9111099 L114.199997,39.7972094 C114.199997,39.7972094 118.291723,39.7972094 119.921037,39.7972094 C119.921037,35.8302119 119.921037,13.8085576 119.921037,13.8085576 C119.921037,9.01834493 125.477538,5.26704479 132.569737,5.26704479 L153.360753,5.26704479 C161.16879,5.26704479 167.057679,9.29593357 167.057679,14.638723 C167.057679,14.638723 167.057679,35.8355547 167.057679,39.7811338 C168.681792,39.7811338 172.767372,39.7811338 172.767372,39.7811338 L172.767372,49.9111099 L151.001415,49.9111099" id="path48" fill="#FFFFFF"></path>
                        <path d="M18.1283211,64.4860504 L18.1283211,41.1990061 C18.1283211,40.0090297 18.6502596,37.9295972 21.143451,37.9295972 L36.6341835,37.9295972 C38.4884624,37.9295972 39.9602827,39.1001881 39.9602827,40.367895 L39.9602827,64.299762 C39.9602827,65.3678471 38.9653418,67.0392418 36.8825523,67.0392418 L21.3513943,67.0392418 C19.1685102,67.0392418 18.1283211,65.6165468 18.1283211,64.4860504 Z M40.4813229,72.4468067 C45.9879421,72.4468067 50.457682,69.7158375 50.457682,66.5669014 L50.457682,39.1792425 C50.457682,36.1471386 47.7541359,32.5267604 41.7263347,32.5267604 L16.8816544,32.5267604 C11.4771628,32.5267604 7.62780123,35.3185807 7.62780123,38.4075641 L7.62780123,66.3290764 C7.62780123,69.9508257 11.8942314,72.4468067 18.1283211,72.4468067 L40.4813229,72.4468067 L40.4813229,72.4468067 Z" id="path50" fill="#F36532"></path>
                        <polyline id="path52" fill="#F36532" points="115.207089 54.6307315 115.207089 60.0387692 99.18865 60.0387692 99.18865 33.6018904 74.5536624 60.0387692 57.6047267 60.0387692 57.6047267 54.6307315 63.3257667 54.6307315 63.3257667 25.5206613 57.6047267 25.5206613 57.6047267 20.1176354 73.5101636 20.1176354 73.5101636 48.5111099 99.8141819 20.1176354 115.207089 20.1224581 115.207089 25.5206613 109.480376 25.5206613 109.480376 54.6307315 115.207089 54.6307315"></polyline>
                        <path d="M133.509217,47.5508262 L133.509217,15.2354606 C133.509217,14.0431202 134.961699,13.0311581 137.040186,13.0311581 L149.723401,13.0311581 C151.38723,13.0311581 153.360753,14.1068082 153.360753,15.3521982 L153.360753,47.5508262 L170.408034,47.5508262 L170.408034,42.1409446 L164.69645,42.1409446 L164.69645,14.638723 C164.69645,10.7768319 159.805197,7.62652463 153.360753,7.62652463 L132.569737,7.62652463 C126.747042,7.62652463 122.281321,10.4836877 122.281321,13.8085576 L122.281321,42.1573985 L116.559808,42.1573985 L116.559808,47.5508262 L133.509217,47.5508262" id="path54" fill="#F36532"></path>
                        <path d="M22.2462406,35.4079897 L36.7121031,35.4079897 C40.4776349,35.4079897 42.479668,37.105862 42.479668,40.2888406 L42.479668,63.1952703 C42.479668,64.3130008 41.8292188,65.699762 40.5939943,66.5546083 C41.1025994,65.8302584 41.3772566,65.0122915 41.3772566,64.299762 L41.3772566,40.367895 C41.3772566,38.243025 39.2492189,36.5120558 36.6341835,36.5120558 L21.143451,36.5120558 C20.1230255,36.5120558 19.3066662,36.7915357 18.6502596,37.2260984 C19.3594794,36.1635452 20.5276591,35.4079897 22.2462406,35.4079897" id="path56" fill="#FABC9A"></path>
                        <path d="M10.1471865,37.3034979 L10.1471865,66.2496437 C10.1471865,68.1588635 13.5464772,69.9262394 18.2059097,69.9262394 L41.5844907,69.9262394 C44.5356963,69.9262394 47.0297861,69.0695018 48.5527175,67.9295491 C47.4080366,69.575412 44.3312046,71.0312039 40.4813229,71.0312039 L18.1283211,71.0312039 C12.7788649,71.0312039 9.04382956,69.096925 9.04382956,66.3290764 L9.04382956,38.4075641 C9.04382956,37.4676586 9.64297848,36.4983915 10.706099,35.705531 C10.3420328,36.2232142 10.1471865,36.7673277 10.1471865,37.3034979" id="path58" fill="#FABC9A"></path>
                        <path d="M60.1238756,57.5177291 C62.3673743,57.5177291 73.5749391,57.5177291 74.9664284,57.5177291 C74.3938516,58.1328591 74.0222204,58.5314406 73.937114,58.6222208 C72.8926696,58.6222208 61.304963,58.6222208 59.0203295,58.6222208 C59.0203295,57.6264761 59.0203295,57.042079 59.0203295,56.0468071 C59.3163106,56.0468071 59.6978708,56.0468071 60.1238756,56.0468071 C60.1238756,56.5030719 60.1238756,56.9437338 60.1238756,57.5177291" id="path60" fill="#FABC9A"></path>
                        <path d="M113.790068,57.5177291 C113.790068,57.8548449 113.790068,58.1995257 113.790068,58.6222208 C111.665245,58.6222208 102.730021,58.6222208 100.604253,58.6222208 C100.604253,56.5210388 100.604253,38.2884624 100.604253,32.0770678 L101.707799,30.888368 C101.707799,37.0170204 101.707799,55.4061452 101.707799,57.5177291 C103.565482,57.5177291 110.620801,57.5177291 113.790068,57.5177291" id="path62" fill="#FABC9A"></path>
                        <polyline id="path64" fill="#FABC9A" points="99.18865 24.6330017 73.5101636 52.3508261 73.5101636 50.6832139 99.18865 23.0590538 99.18865 24.6330017"></polyline>
                        <path d="M64.7413695,54.6307315 L64.7413695,24.1040656 C64.7413695,24.1040656 60.6245848,24.1040656 59.0203295,24.1040656 C59.0203295,23.1102122 59.0203295,22.5280845 59.0203295,21.5338529 C59.2893602,21.5338529 59.6676108,21.5338529 60.1238756,21.5338529 C60.1238756,21.9891247 60.1238756,22.42799 60.1238756,22.9990538 C61.727658,22.9990538 65.8458612,22.9990538 65.8458612,22.9990538 L65.8458612,54.6307315 L64.7413695,54.6307315" id="path66" fill="#FABC9A"></path>
                        <path d="M109.480376,24.1040656 L109.480376,22.9990538 C110.24917,22.9990538 112.290777,22.9990538 113.790068,22.9990538 C113.790068,23.3366424 113.790068,23.6803777 113.790068,24.1040656 C112.791014,24.1040656 110.828839,24.1040656 109.480376,24.1040656" id="path68" fill="#FABC9A"></path>
                        <path d="M138.143732,10.5097397 L149.801888,10.5097397 C153.20236,10.5097397 155.879902,12.2316309 155.879902,15.2728129 C155.879902,15.2728129 155.879902,42.4407082 155.879902,45.0306372 C157.783448,45.0306372 165.643495,45.0306372 168.991012,45.0306372 C168.991012,45.3678948 168.991012,45.7125284 168.991012,46.135318 C166.826473,46.135318 156.94184,46.135318 154.776355,46.135318 C154.776355,43.5466656 154.776355,15.3521982 154.776355,15.3521982 C154.776355,13.213664 152.108743,11.6156971 149.723401,11.6156971 L137.040186,11.6156971 C135.710635,11.6156971 134.547987,11.9697397 133.675647,12.5507798 C134.45106,11.3266664 136.111108,10.5097397 138.143732,10.5097397" id="path70" fill="#FABC9A"></path>
                        <path d="M119.078957,45.0306372 C120.97872,45.0306372 128.761699,45.0306372 132.092195,45.0306372 C132.092195,45.5409445 132.092195,45.928084 132.092195,46.135318 C129.930493,46.135318 120.138058,46.135318 117.975411,46.135318 C117.975411,45.1433086 117.975411,44.565058 117.975411,43.5734268 C118.271865,43.5734268 118.653425,43.5734268 119.078957,43.5734268 C119.078957,44.0250107 119.078957,44.4619847 119.078957,45.0306372" id="path72" fill="#FABC9A"></path>
                        <path d="M124.800943,42.1573985 L123.698342,42.1573985 L123.698342,13.8085576 C123.698342,12.8898815 124.30969,11.9318673 125.380139,11.1168319 C125.008508,11.6360281 124.800943,12.1764063 124.800943,12.7031675 L124.800943,42.1573985" id="path74" fill="#FABC9A"></path>
                        <path d="M146.950824,55.1801405 C150.241131,58.2349867 152.94515,58.6203295 153.010398,58.629313 C152.924819,58.6472799 151.226947,59.2501167 148.621273,59.4387692 C146.759807,58.4009442 145.371628,57.2085092 145.371628,57.2085092 C145.090304,58.0255305 145.097396,58.7976345 145.196214,59.4075635 C144.791013,59.3706841 144.377301,59.32293 143.952242,59.2591002 C141.643968,59.165956 138.963117,58.7891238 135.992432,57.9059087 C136.403306,59.3257668 137.207562,61.0534264 138.764063,62.9035445 C133.829311,57.9536629 124.050115,61.3564996 124.050115,61.3564996 C123.639713,61.2751758 123.234512,61.2070907 122.835458,61.1475162 L122.835458,55.1801405 L146.950824,55.1801405" id="path76" fill="#D3D2D2"></path>
                        <path d="M153.018398,58.6312115 C153.018398,58.6312115 153.011731,58.6312115 153.010398,58.6298782 C153.019731,58.6285449 153.023731,58.6285449 153.018398,58.6312115" id="path78" fill="#D3D2D2"></path>
                        <path d="M91.5598086,56.8751759 C91.5598086,59.9451522 91.5598086,63.2042537 91.5598086,65.3276579 C91.0051987,65.1229298 90.4378228,64.9541355 89.860045,64.8321497 C89.860045,64.8321497 90.6302578,65.6747028 91.5598086,66.8851047 C91.5598086,67.3820314 91.5598086,67.6671378 91.5598086,67.6671378 L92.1423145,67.6671378 C93.1659551,69.0827406 94.2307305,70.8023623 94.6203286,72.2685561 C94.6203286,72.2685561 90.5985793,71.3096909 86.771629,72.0468067 C86.771629,72.0468067 94.4170189,73.9328587 96.452007,77.3754118 C96.452007,77.3754118 98.0576808,75.5101636 102.836404,75.2543716 C102.836404,75.2543716 100.013709,70.8137098 95.7607541,67.6671378 L109.192432,67.6671378 C111.264773,69.0047264 112.685104,70.9995254 113.632621,72.8505892 L115.332858,77.5910146 C115.332858,77.5910146 112.625056,73.4624095 104.450588,71.0647736 C104.450588,71.0647736 108.466191,74.5612275 109.487941,78.8581541 C109.487941,78.8581541 102.781558,78.1375867 99.495033,80.2628822 C97.3806122,80.3640642 94.9120544,80.7248207 92.0420781,81.4713928 C92.0420781,81.4713928 94.6534255,82.3007072 95.9191465,83.382031 C95.9191465,83.382031 90.8510616,83.5380594 83.7999979,86.5820309 C83.1366409,85.5773028 80.9059081,81.6231658 80.8992888,77.5375867 C80.8992888,77.5375867 85.9460971,76.4335678 88.0742295,77.8765938 C88.0742295,77.8765938 84.2307308,72.8581542 81.037823,70.9825041 C81.037823,70.9825041 84.0085085,67.27423 85.0354589,59.9787219 C86.8926692,57.9858142 88.850116,55.8860506 90.5635911,54.04728 C90.9210379,54.9186747 91.2576809,55.8600459 91.5598086,56.8751759" id="path80" fill="#D3D2D2"></path>
                        <path d="M89.860045,64.8321497 C90.4378228,64.9541355 91.0051987,65.1229298 91.5598086,65.3276579 C91.5598086,65.9593364 91.5598086,66.4903057 91.5598086,66.8851047 C90.6302578,65.6747028 89.860045,64.8321497 89.860045,64.8321497" id="path82" fill="#FFFFFF"></path>
                        <path d="M95.7607541,67.6671378 L95.7607541,67.6671378 C100.013709,70.8137098 102.836404,75.2543716 102.836404,75.2543716 C98.0576808,75.5101636 96.452007,77.3754118 96.452007,77.3754118 C94.4170189,73.9328587 86.771629,72.0468067 86.771629,72.0468067 C90.5985793,71.3096909 94.6203286,72.2685561 94.6203286,72.2685561 C94.2307305,70.8023623 93.1659551,69.0827406 92.1423145,67.6671378 L92.1423145,67.6671378 L95.7607541,67.6671378" id="path84" fill="#FFFFFF"></path>
                        <path d="M126.602361,107.330494 C126.261463,108.424111 126.112054,109.417491 126.045387,110.072338 L122.375883,106.099288 C122.375883,106.099288 109.436877,111.017491 92.2836856,114.509217 C92.2836856,114.509217 91.4037802,109.900234 86.0354588,109.259572 L83.9905416,111.901179 C81.1030713,112.788177 78.1673739,113.175884 77.2638279,110.18203 C78.547043,109.5669 79.9243479,109.256735 79.9243479,109.256735 L78.5990524,106.686522 C78.5990524,106.686522 73.9512984,107.057681 72.299289,112.086522 C70.6453883,117.119146 77.0264756,117.824583 79.0647734,117.801415 L77.7536624,119.647278 C76.1564993,119.677538 68.6713931,119.328602 70.3304947,110.206144 C69.3929061,111.417018 68.9725751,112.709217 68.833568,114.252479 C66.7546083,117.792905 68.061464,124.707325 78.0297853,122.980139 L84.4463336,114.52482 C84.4463336,114.52482 88.128603,114.560754 89.3910143,115.640659 C89.3910143,115.640659 88.9347495,117.917728 89.8193831,120.020801 C89.8193831,120.020801 95.7139456,125.279429 102.782503,125.667609 C102.782503,125.667609 100.033567,124.626002 97.867137,121.612763 C106.014655,123.455789 110.613709,120.132385 110.613709,120.132385 C107.690777,119.346569 106.939004,117.271392 106.939004,117.271392 C114.723874,118.126711 120.668082,114.138059 120.668082,114.138059 C119.010872,118.32482 115.355553,119.130493 115.355553,119.130493 C129.787231,122.807562 138.955079,116.88794 138.955079,116.88794 C137.962644,118.541841 134.689358,120.286522 134.689358,120.286522 C140.830257,119.201888 145.365481,114.950825 145.365481,114.950825 C145.365481,114.950825 145.507325,115.424583 145.324819,116.401416 C145.77872,116.154134 146.693141,115.556025 148.160753,114.162172 C152.046805,111.091723 149.940895,107.339004 149.940895,107.339004 C144.50307,111.608035 136.12151,112.569264 136.12151,112.569264 C130.971155,110.8156 126.602361,107.330494 126.602361,107.330494 L126.602361,107.330494 Z M140.503543,104.269028 C134.598578,104.339004 132.28463,108.008035 132.28463,108.008035 C132.28463,108.008035 134.979666,109.771156 137.065245,110.148461 C137.065245,110.148461 143.265245,109.288886 147.732384,106.232149 C147.732384,106.232149 145.017018,104.2156 140.503543,104.269028 L140.503543,104.269028 Z M152.913944,107.685577 C160.870445,102.910636 170.501178,95.6061442 172.386757,94.105435 C172.386757,94.105435 171.337584,93.9304941 170.594322,93.0156005 C162.920563,98.7030708 155.603779,103.617964 152.099287,105.929548 C152.475173,106.505435 152.734748,107.12482 152.913944,107.685577 Z M184.626473,93.7555532 C183.38061,93.2226927 182.22269,91.9683192 181.487466,89.4430238 C177.502596,92.7744658 164.412762,103.548461 153.97872,109.613236 C153.97872,109.613236 154.469972,112.628366 153.260989,114.495978 C153.260989,114.495978 173.905906,103.631676 184.626473,93.7555532 L184.626473,93.7555532 Z M132.047751,100.455317 C132.047751,100.455317 141.120564,95.5754113 147.555079,101.154607 C162.595268,96.206617 174.147041,87.0718654 177.971154,83.8004707 C177.944204,87.9494068 182.581083,87.9839222 182.581083,87.9839222 C184.743731,97.287468 191.937584,91.8709197 191.937584,91.8709197 C174.695504,106.478957 153.446805,116.462408 153.446805,116.462408 C151.769736,116.985813 150.028838,116.504016 150.028838,116.504016 C126.475174,130.93333 115.119146,124.626947 115.119146,124.626947 C115.119146,124.626947 120.477066,128.240186 126.9182,127.950351 C126.9182,127.950351 133.443495,128.56359 150.313471,118.892196 C150.313471,118.892196 151.773991,119.052479 153.529547,118.99716 C161.196686,115.812763 169.897868,110.327657 169.897868,110.327657 C170.041131,112.67943 169.528601,114.609453 169.073282,115.810399 C166.823164,116.977775 164.060043,117.29456 162.376828,117.372101 C156.145623,121.343732 149.412762,124.2156 149.412762,124.2156 C149.412762,124.2156 155.622218,123.736167 160.052005,121.93995 C160.052005,121.93995 160.084157,123.319146 158.980138,125.441132 C156.090303,127.677065 152.253424,129.234985 152.253424,129.234985 C149.153661,128.261463 146.355079,126.526238 146.355079,126.526238 C116.119146,137.102597 93.2794303,126.708271 88.19196,124.035931 C82.0056717,127.389595 75.1839225,128.262408 75.1839225,128.262408 C59.2860505,123.778247 68.6652465,105.60047 68.6652465,105.60047 C71.0803765,103.425057 74.5631187,100.350825 74.5631187,100.350825 C81.6940878,101.528603 84.609927,97.452007 84.609927,97.452007 C82.6964518,97.7271843 80.2316765,96.7465697 80.2316765,96.7465697 C81.3399507,93.376357 81.4822675,89.9366408 81.1167828,86.7375865 C80.1900689,78.6160737 75.9905418,72.0354592 75.9905418,72.0354592 C79.6066174,68.7872323 81.8988159,65.0799038 83.3503525,61.7872325 C83.9101634,61.1867597 84.4903052,60.5635919 85.0808489,59.930495 C84.0458608,67.2014168 81.037823,70.9825041 81.037823,70.9825041 C84.2307308,72.8581542 88.0742295,77.8765938 88.0742295,77.8765938 C85.9460971,76.4335678 80.8992888,77.5375867 80.8992888,77.5375867 C80.9059081,81.6231658 83.1366409,85.5773028 83.7999979,86.5820309 C83.7999979,86.5820309 86.1635912,90.0770663 89.6666644,91.6794303 C89.6666644,91.6794303 85.2647733,91.8869953 83.1446788,93.1645367 C83.1446788,93.1645367 85.6973974,98.6179644 94.6477518,98.353189 C94.6477518,98.353189 89.8193831,96.6869952 87.462882,94.2884137 C87.462882,94.2884137 93.8222199,92.8817944 97.6406595,93.2260024 C97.6406595,93.2260024 92.368792,91.0978701 88.2066172,87.5470427 C88.2066172,87.5470427 96.5290756,84.8624092 103.481794,86.4250569 C103.481794,86.4250569 101.438768,82.8439696 97.3985791,82.2699743 C97.3985791,82.2699743 105.468555,81.0761209 110.641605,83.5196197 C110.641605,83.5196197 107.83404,79.8666647 99.495033,80.2628822 C102.781558,78.1375867 109.487941,78.8581541 109.487941,78.8581541 C108.466191,74.5612275 104.450588,71.0647736 104.450588,71.0647736 C112.625056,73.4624095 115.332858,77.5910146 115.332858,77.5910146 L117.754607,77.7186742 C117.643023,72.0817949 113.627893,68.6851047 113.627893,68.6851047 C118.971628,68.4638281 121.754607,69.056263 121.754607,69.056263 C121.613709,68.5640645 121.454843,68.1011803 121.284631,67.6671378 L122.835458,67.6671378 L122.835458,63.7739937 C128.680848,64.7011804 133.793377,68.2879416 133.793377,68.2879416 L134.488886,66.0070905 C132.255789,64.1560268 128.033094,62.79858 128.033094,62.79858 C134.485103,61.1527171 138.764063,62.9035445 138.764063,62.9035445 C137.207562,61.0534264 136.403306,59.3257668 135.992432,57.9059087 C138.963117,58.7891238 141.643968,59.165956 143.952242,59.2591002 C144.377301,59.32293 144.791013,59.3706841 145.196214,59.4075635 C145.322928,60.1900694 145.598105,60.7063815 145.598105,60.7063815 C147.723873,62.2931427 151.763117,62.6893601 151.763117,62.6893601 C152.909216,62.3777762 154.115363,61.4089819 154.786757,60.811346 C153.444913,60.9167833 152.665244,60.9021261 152.665244,60.9021261 C151.28463,60.7408968 149.849642,60.1229299 148.621273,59.4387692 C151.24775,59.2496439 152.95366,58.6378236 153.012762,58.6288401 C153.012762,58.6288401 153.011817,58.6288401 153.011817,58.6274217 C157.640185,58.5550813 164.130965,57.4855778 168.015126,56.7654832 C170.022691,56.4085092 171.332383,56.1148922 171.332383,56.1148922 C176.527655,56.3423154 183.270445,59.2184382 186.183447,60.5716297 C186.525764,61.697398 186.73853,62.8940883 186.854842,63.6973979 C180.69314,64.5886509 175.880374,64.1451521 175.880374,64.1451521 C173.649168,63.4141828 171.325764,62.1791947 171.325764,62.1791947 C166.519145,66.4576816 158.118199,67.9257666 155.167845,68.3234025 C154.879902,66.4340409 155.692668,64.9711568 157.759334,64.7423152 C157.759334,64.7423152 150.728129,63.9413696 151.876592,69.739951 C152.983921,75.3342771 159.994322,73.3281306 160.48132,73.1815585 C166.026001,75.2023622 168.816544,76.1706837 168.332856,82.2170192 C167.855315,88.2108725 154.190067,93.48274 154.190067,93.48274 C153.651533,84.0193832 144.4208,78.27092 134.003779,78.3957427 C123.589122,78.5224567 119.690304,84.1394778 119.690304,84.1394778 C139.368318,79.5716292 143.884157,92.3858133 143.884157,92.3858133 C130.825529,91.1981065 132.032148,100.455317 132.032148,100.455317 L132.047751,100.455317 L132.047751,100.455317 Z" id="path86" fill="#FFFFFF"></path>
                        <path d="M159.267135,124.850115 C154.406143,125.932385 149.412762,124.2156 149.412762,124.2156 C149.412762,124.2156 155.622218,123.736167 160.052005,121.93995 C160.052005,121.93995 160.074228,123.068082 159.267135,124.850115" id="path88" fill="#D3D2D2"></path>
                    </g>
                </g>
            </g>
        </g>
    </g>
</svg>